<svg width="56" height="56" xmlns="http://www.w3.org/2000/svg"><g fill="#FFF" fill-rule="evenodd"><path d="M27.946 51.081c-12.879 0-23.356-10.41-23.356-23.207 0-12.796 10.477-23.206 23.356-23.206 12.879 0 23.356 10.41 23.356 23.206S40.825 51.081 27.946 51.081m0-50.974C12.512.107 0 12.54 0 27.874 0 43.21 12.512 55.641 27.946 55.641c15.434 0 27.946-12.43 27.946-27.767C55.892 12.54 43.38.107 27.946.107"/><path d="M41.992 30.445L38.229 28l3.763-2.445v4.89zM29.004 40.809v-6.815l6.52-4.236 5.264 3.42-11.784 7.63zM27.5 31.456L22.18 28l5.32-3.457L32.82 28l-5.32 3.456zm-1.504 9.353l-11.784-7.631 5.264-3.42 6.52 4.236v6.815zM13.008 25.555L16.771 28l-3.763 2.445v-4.89zM25.996 15.19v6.814l-6.52 4.238-5.264-3.421 11.784-7.631zm3.008 0l11.784 7.63-5.264 3.422-6.52-4.238v-6.814zm15.982 7.439c-.003-.022-.008-.042-.012-.064a1.395 1.395 0 00-.026-.122c-.007-.025-.016-.048-.024-.071-.012-.036-.024-.072-.038-.106a1.395 1.395 0 00-.085-.168l-.043-.068a1.3 1.3 0 00-.19-.231l-.06-.058a1.706 1.706 0 00-.085-.07l-.068-.05-.025-.017-15.996-10.36a1.54 1.54 0 00-1.668 0L10.67 21.605c-.009.005-.016.012-.025.018a1.463 1.463 0 00-.153.12c-.021.017-.04.037-.06.057a1.282 1.282 0 00-.19.23 1.21 1.21 0 00-.094.165c-.012.023-.024.047-.034.072-.015.034-.027.07-.039.106l-.023.07c-.011.04-.018.082-.026.123-.004.022-.01.042-.012.064a1.366 1.366 0 00-.014.19v10.36c0 .064.005.127.014.19l.012.063c.008.042.015.083.026.123l.023.07c.012.036.024.072.04.108a1.713 1.713 0 00.085.168 1.656 1.656 0 00.232.298c.02.02.039.04.06.057a1.278 1.278 0 00.153.12c.009.005.016.012.025.018l15.996 10.36a1.535 1.535 0 001.668 0l15.996-10.36c.008-.006.016-.013.025-.018a1.673 1.673 0 00.153-.12l.06-.057a1.417 1.417 0 00.19-.231l.043-.067a1.3 1.3 0 00.051-.097l.034-.071c.014-.036.026-.072.038-.107.008-.024.017-.047.024-.071.011-.04.019-.081.026-.123.004-.02.01-.042.012-.062a1.47 1.47 0 00.014-.192V22.82c0-.064-.005-.128-.014-.19z"/></g></svg>