<svg width="56" height="44" xmlns="http://www.w3.org/2000/svg"><path d="M56 5.209a23.555 23.555 0 01-6.599 1.748c2.373-1.374 4.196-3.55 5.052-6.145a23.5 23.5 0 01-7.296 2.696C45.064 1.349 42.075 0 38.77 0c-7.418 0-12.869 6.691-11.193 13.637-9.546-.462-18.011-4.884-23.679-11.604-3.01 4.992-1.561 11.523 3.554 14.83a11.74 11.74 0 01-5.201-1.39c-.126 5.146 3.689 9.96 9.214 11.032a11.899 11.899 0 01-5.19.19c1.461 4.412 5.703 7.622 10.734 7.713C12.18 38.069 6.095 39.705 0 39.01 5.084 42.16 11.125 44 17.612 44c21.331 0 33.383-17.418 32.655-33.04A22.977 22.977 0 0056 5.208z" fill="#FFF" fill-rule="nonzero"/></svg>