<svg width="52" height="52" xmlns="http://www.w3.org/2000/svg"><path d="M26 0C11.64 0 0 11.642 0 26s11.64 26 26 26 26-11.642 26-26S40.36 0 26 0zm21.574 24.34c-5.43-.88-10.423-.928-14.978-.152a87.46 87.46 0 00-1.617-3.504c4.87-2.086 8.783-4.918 11.699-8.514a20.45 20.45 0 014.896 12.17zM39.83 8.81c-2.675 3.288-6.366 5.888-11.067 7.786A97.49 97.49 0 0021.021 5.09a22.976 22.976 0 015.396-.664c5.05 0 9.695 1.648 13.413 4.384zM16.68 6.638a99.137 99.137 0 017.66 11.933c-5.263 1.585-11.546 2.4-18.808 2.45C7.03 14.735 11.165 9.506 16.68 6.638zM4.426 26.544l.028-.537c8.41-.01 15.665-.94 21.742-2.773.509.996.996 1.997 1.464 3.004-7.386 2.217-13.471 6.758-18.218 13.592-3.129-3.606-5.016-8.237-5.016-13.286zm8.85 16.45c4.294-6.723 9.773-11.099 16.567-13.122a85.116 85.116 0 014.455 16.243c-7.302 2.81-15.16 1.45-21.021-3.12zm25.134 1.261a91.998 91.998 0 00-4.112-15.141c4.018-.582 8.438-.43 13.276.43-.935 6.116-4.343 11.398-9.164 14.711z" fill="#FFF" fill-rule="nonzero"/></svg>