<svg width="60" height="56" xmlns="http://www.w3.org/2000/svg"><path d="M30 0C13.435 0 0 12.854 0 28.708c0 12.684 8.595 23.445 20.517 27.241 1.498.266 1.983-.624 1.983-1.38v-5.345c-8.345 1.737-10.082-3.387-10.082-3.387-1.365-3.318-3.333-4.201-3.333-4.201-2.723-1.782.207-1.744.207-1.744 3.013.2 4.598 2.96 4.598 2.96 2.675 4.387 7.017 3.119 8.73 2.384.267-1.854 1.045-3.122 1.905-3.837-6.662-.73-13.667-3.191-13.667-14.189 0-3.136 1.172-5.696 3.09-7.705-.31-.725-1.338-3.646.292-7.598 0 0 2.52-.77 8.252 2.942 2.393-.636 4.958-.954 7.508-.966 2.55.012 5.117.33 7.515.966 5.727-3.713 8.242-2.942 8.242-2.942 1.633 3.954.605 6.875.296 7.598 1.925 2.01 3.087 4.571 3.087 7.705 0 11.026-7.017 13.455-13.697 14.165 1.075.89 2.057 2.637 2.057 5.316v7.878c0 .763.48 1.66 2.002 1.378C51.415 52.145 60 41.387 60 28.707 60 12.855 46.568 0 30 0z" fill="#FFF" fill-rule="nonzero"/></svg>