<svg width="64" height="40" xmlns="http://www.w3.org/2000/svg"><path d="M58.553 5.517H39.49V0h19.064v5.517zm4.73 26.632C62.128 35.543 57.98 40 49.95 40c-8.036 0-14.545-4.525-14.545-14.852 0-10.233 6.078-15.493 14.289-15.493 8.056 0 12.976 4.664 14.05 11.583.204 1.325.285 3.11.248 5.6H43.01c.34 8.404 9.104 8.669 11.993 5.31h8.281zm-21.07-11.46H55.83c-.288-3.846-3.116-5.517-6.794-5.517-4.02 0-6.245 1.91-6.823 5.518zM17.609 40H0V0h18.935c14.913.216 15.196 14.55 7.408 18.457C35.768 21.824 36.083 40 17.609 40zM8.17 16.552H17.8c6.738 0 7.807-8.276-.838-8.276H8.17v8.276zm9.121 6.896h-9.12v8.276h8.986c8.217 0 7.714-8.276.134-8.276z" fill="#FFF" fill-rule="nonzero"/></svg>